<?xml version="1.0" encoding="utf-8"?>
<!-- Generator: Adobe Illustrator 27.9.0, SVG Export Plug-In . SVG Version: 6.00 Build 0)  -->
<svg version="1.1" id="Layer_1" xmlns:v="https://vecta.io/nano"
	 xmlns="http://www.w3.org/2000/svg" xmlns:xlink="http://www.w3.org/1999/xlink" x="0px" y="0px" viewBox="0 0 116 32"
	 style="enable-background:new 0 0 116 32;" xml:space="preserve">
<style type="text/css">
	.st0{fill:url(#SVGID_1_);}
	.st1{fill:url(#SVGID_00000170964528840037648820000011415463558059208118_);}
	.st2{fill:url(#SVGID_00000137847842871693341360000013367421464614555550_);}
	.st3{fill:url(#SVGID_00000055704341411887501210000014129842680916167347_);}
	.st4{fill:url(#SVGID_00000123443320945228042430000016056951103851496344_);}
	.st5{fill:url(#SVGID_00000173140563199284939300000005488241808921068436_);}
	.st6{fill:url(#SVGID_00000036250769916121074630000003224582317117164185_);}
	.st7{fill:url(#SVGID_00000080906593264002988910000006047827977484025234_);}
	.st8{fill:#FFFFFF;}
</style>
<g>
	
		<linearGradient id="SVGID_1_" gradientUnits="userSpaceOnUse" x1="7.1234" y1="9.8221" x2="72.6662" y2="9.8221" gradientTransform="matrix(-0.9998 1.820000e-02 1.820000e-02 0.9998 114.6671 -1.3279)">
		<stop  offset="0" style="stop-color:#00B8FF"/>
		<stop  offset="1" style="stop-color:#2F206B"/>
	</linearGradient>
	<path class="st0" d="M42.1,3.4c1,5.4,8.3,7.9,17.8,9c18.4,2.1,44.8-0.9,47.9,2.7c-3.2-4.3-14.3-5.2-26.6-5.5l-0.1,0
		C64.6,9,46,9.4,42.1,3.4z"/>
	
		<linearGradient id="SVGID_00000097494579705888858790000012034106044253916839_" gradientUnits="userSpaceOnUse" x1="61.818" y1="7.0365" x2="105.8376" y2="15.3378" gradientTransform="matrix(-0.9998 1.820000e-02 1.820000e-02 0.9998 114.6671 -1.3279)">
		<stop  offset="0" style="stop-color:#00B8FF"/>
		<stop  offset="1" style="stop-color:#2F206B"/>
	</linearGradient>
	<path style="fill:url(#SVGID_00000097494579705888858790000012034106044253916839_);" d="M5.7,8.7c16,4.1,30-8.2,54-6.2
		C65.8,3,85.1,9.7,85.1,9.7c-4.7-2.9-21.3-8.4-25.2-8.9C56.3,0.4,42.8-1.7,26.6,3c0,0,0,0,0,0c-1.4,0.4-2.8,0.9-4.2,1.4
		C12,8.2,5.7,8.7,5.7,8.7z"/>
	
		<linearGradient id="SVGID_00000134214993546881223670000008009274599836174209_" gradientUnits="userSpaceOnUse" x1="80.0698" y1="11.6416" x2="108.1977" y2="9.56" gradientTransform="matrix(-0.9998 1.820000e-02 1.820000e-02 0.9998 114.6671 -1.3279)">
		<stop  offset="0" style="stop-color:#00B8FF"/>
		<stop  offset="1" style="stop-color:#2F206B"/>
	</linearGradient>
	<path style="fill:url(#SVGID_00000134214993546881223670000008009274599836174209_);" d="M5.7,8.7c6.3,7.1,21.5,4.3,34.2,3.8
		c4-0.2,7.7-0.1,10.9,0.6c-11.5-5.3-24-3.7-33.2-3l0,0C12.2,10.4,8,10.5,5.7,8.7z"/>
	
		<linearGradient id="SVGID_00000158728013860612553210000009392872492251177634_" gradientUnits="userSpaceOnUse" x1="11.7865" y1="16.25" x2="12.1463" y2="19.1278" gradientTransform="matrix(-0.9998 1.820000e-02 1.820000e-02 0.9998 114.6671 -1.3279)">
		<stop  offset="0" style="stop-color:#FFFFFF"/>
		<stop  offset="1" style="stop-color:#686869"/>
	</linearGradient>
	<path style="fill:url(#SVGID_00000158728013860612553210000009392872492251177634_);" d="M97.3,14.9c1,2.8,4.6,2.8,7.6,2.8
		c1.8,0,3.3-0.1,3.9,0.5c-0.7-2.7-5-3.4-8.2-3.5C99.1,14.7,97.8,14.8,97.3,14.9z"/>
	
		<linearGradient id="SVGID_00000170260942911410117440000000121469592802456472_" gradientUnits="userSpaceOnUse" x1="33.6823" y1="8.0551" x2="72.6662" y2="8.0551" gradientTransform="matrix(-0.9998 1.820000e-02 1.820000e-02 0.9998 114.6671 -1.3279)">
		<stop  offset="0" style="stop-color:#00B8FF"/>
		<stop  offset="1" style="stop-color:#2F206B"/>
	</linearGradient>
	<path style="fill:url(#SVGID_00000170260942911410117440000000121469592802456472_);" d="M42.1,3.4c1,5.4,8.3,7.9,17.8,9
		c7.5,0.3,10.3-3.1,21.3-2.8C64.6,9,46,9.4,42.1,3.4z"/>
	
		<linearGradient id="SVGID_00000109750326240870551850000015583834778314782350_" gradientUnits="userSpaceOnUse" x1="29.7975" y1="5.2806" x2="88.0924" y2="5.2806" gradientTransform="matrix(-0.9998 1.820000e-02 1.820000e-02 0.9998 114.6671 -1.3279)">
		<stop  offset="0" style="stop-color:#00B8FF"/>
		<stop  offset="1" style="stop-color:#2F206B"/>
	</linearGradient>
	<path style="fill:url(#SVGID_00000109750326240870551850000015583834778314782350_);" d="M26.6,3c10.2-1.6,19.1-3,33.1-0.6
		C65.8,3,85.1,9.7,85.1,9.7c-4.7-2.9-21.3-8.4-25.2-8.9C56.3,0.4,42.8-1.7,26.6,3z"/>
	
		<linearGradient id="SVGID_00000055695463532724742920000010668688020537486209_" gradientUnits="userSpaceOnUse" x1="77.4121" y1="10.7728" x2="95.5378" y2="14.191" gradientTransform="matrix(-0.9998 1.820000e-02 1.820000e-02 0.9998 114.6671 -1.3279)">
		<stop  offset="0" style="stop-color:#00B8FF"/>
		<stop  offset="1" style="stop-color:#2F206B"/>
	</linearGradient>
	<path style="fill:url(#SVGID_00000055695463532724742920000010668688020537486209_);" d="M17.7,10c7.6-0.1,9.9,2.6,22.3,2.4
		c0,0,0,0,0,0c4-0.2,7.7-0.1,10.9,0.6C39.3,7.7,26.9,9.3,17.7,10z"/>
	
		<linearGradient id="SVGID_00000175310338564950131600000014389990164004850309_" gradientUnits="userSpaceOnUse" x1="98.4805" y1="9.3875" x2="108.1231" y2="9.3875" gradientTransform="matrix(-0.9998 -2.160000e-02 -2.160000e-02 0.9998 113.9253 6.2313)">
		<stop  offset="0" style="stop-color:#FF8778"/>
		<stop  offset="1" style="stop-color:#B60A27"/>
	</linearGradient>
	<path style="fill:url(#SVGID_00000175310338564950131600000014389990164004850309_);" d="M15.2,14.7c-6.6-0.8-9.4-3.6-9.4-3.6
		C5,14.4,6.3,17.1,15.2,14.7z"/>
</g>
<g>
	<g>
		<g>
			<path class="st8" d="M10.6,31.9c-1,0-1.9-0.2-2.6-0.6s-1.2-1-1.4-1.8c-0.3-0.8-0.3-1.7-0.1-2.7c0.4-1.7,1-2.9,2-3.9
				c1-0.9,2.4-1.4,4.2-1.4c0.6,0,1.1,0,1.6,0.1c0.5,0.1,0.9,0.2,1.3,0.4l-0.4,1.8c-0.8-0.4-1.7-0.5-2.7-0.5c-1.1,0-2,0.3-2.6,0.9
				s-1,1.4-1.3,2.6c-0.2,1.1-0.2,1.9,0.2,2.5s1.1,0.8,2.4,0.8c0.5,0,1,0,1.5-0.1s1-0.2,1.4-0.4l-0.4,1.8c-0.5,0.1-0.9,0.2-1.4,0.3
				C11.8,31.9,11.2,31.9,10.6,31.9z"/>
			<path class="st8" d="M15.9,31.7l5.9-10h2.3l1.7,10h-2.1l-0.4-2.4h-3.7l-1.4,2.4H15.9z M20.2,27.7h3.1l-0.7-4L20.2,27.7z"/>
			<path class="st8" d="M28.8,31.7l2.1-10h4.8c1.1,0,1.8,0.3,2.3,0.9c0.5,0.6,0.6,1.4,0.3,2.4c-0.1,0.7-0.4,1.3-0.9,1.8
				c-0.4,0.5-1,0.8-1.7,1c0.1,0.1,0.2,0.3,0.3,0.4s0.1,0.4,0.2,0.6l0.6,2.8h-2.2L34,29.1c-0.1-0.2-0.1-0.4-0.2-0.5
				c-0.1-0.1-0.3-0.1-0.6-0.1h-1.6l-0.7,3.3H28.8z M31.9,26.7h2.2c0.5,0,1-0.1,1.4-0.4c0.4-0.2,0.6-0.7,0.7-1.2
				c0.1-0.6,0.1-1-0.1-1.2c-0.2-0.3-0.6-0.4-1.2-0.4h-2.3L31.9,26.7z"/>
			<path class="st8" d="M44.9,31.7l2.1-10h4.2c1.4,0,2.4,0.4,3,1.3c0.6,0.8,0.8,2.1,0.4,3.8c-0.4,1.7-1,3-1.8,3.8
				c-0.9,0.8-2.1,1.2-3.7,1.2H44.9z M47.3,30.1h1.8c0.5,0,1-0.1,1.5-0.3s0.8-0.5,1.1-1c0.3-0.5,0.6-1.2,0.8-2.1
				c0.2-0.9,0.3-1.6,0.2-2.1c-0.1-0.5-0.3-0.8-0.6-1c-0.3-0.2-0.9-0.3-1.5-0.3h-1.8L47.3,30.1z"/>
			<path class="st8" d="M56.6,31.7l2.1-10h7.2l-0.3,1.6h-5.1l-0.5,2.6h4.5L64,27.6h-4.5L59,30.1h5.1l-0.3,1.6H56.6z"/>
			<path class="st8" d="M66.4,31.7l5.9-10h2.3l1.7,10h-2.1l-0.4-2.4h-3.7l-1.4,2.4H66.4z M70.8,27.7h3.1l-0.7-4L70.8,27.7z"/>
			<path class="st8" d="M79.4,31.7l2.1-10h2.1l-1.8,8.4h4.9l-0.3,1.6H79.4z"/>
			<path class="st8" d="M89.1,31.7l2.1-10h7.2L98,23.4h-5.1l-0.5,2.6h4.5l-0.3,1.6H92l-0.5,2.6h5.1l-0.3,1.6H89.1z"/>
			<path class="st8" d="M99.3,31.7l2.1-10h4.8c1.1,0,1.8,0.3,2.3,0.9c0.5,0.6,0.6,1.4,0.3,2.4c-0.1,0.7-0.4,1.3-0.9,1.8
				c-0.4,0.5-1,0.8-1.7,1c0.1,0.1,0.2,0.3,0.3,0.4s0.1,0.4,0.2,0.6l0.6,2.8h-2.2l-0.6-2.7c-0.1-0.2-0.1-0.4-0.2-0.5
				s-0.3-0.1-0.6-0.1H102l-0.7,3.3H99.3z M102.4,26.7h2.2c0.5,0,1-0.1,1.4-0.4c0.4-0.2,0.6-0.7,0.7-1.2c0.1-0.6,0.1-1-0.1-1.2
				c-0.2-0.3-0.6-0.4-1.2-0.4h-2.3L102.4,26.7z"/>
		</g>
	</g>
</g>
</svg>
